<mxfile host="app.diagrams.net" agent="Mozilla/5.0 (Windows NT 10.0; Win64; x64) AppleWebKit/537.36 (KHTML, like Gecko) Chrome/134.0.0.0 Safari/537.36 OPR/119.0.0.0" version="28.0.6">
  <diagram name="Page-1" id="6LZy2wGaIHkosrLeLsSn">
    <mxGraphModel dx="899" dy="1115" grid="1" gridSize="10" guides="1" tooltips="1" connect="1" arrows="1" fold="1" page="1" pageScale="1" pageWidth="2339" pageHeight="3300" math="0" shadow="0">
      <root>
        <mxCell id="0" />
        <mxCell id="1" parent="0" />
        <mxCell id="xFljtQe3LfoLFo4QXkJY-1" value="" style="rounded=0;whiteSpace=wrap;html=1;fillColor=none;dashed=1;" vertex="1" parent="1">
          <mxGeometry x="50" y="160" width="120" height="390" as="geometry" />
        </mxCell>
        <mxCell id="xFljtQe3LfoLFo4QXkJY-2" value="Sources" style="rounded=0;whiteSpace=wrap;html=1;strokeColor=none;" vertex="1" parent="1">
          <mxGeometry x="70" y="140" width="80" height="30" as="geometry" />
        </mxCell>
        <mxCell id="xFljtQe3LfoLFo4QXkJY-39" style="edgeStyle=orthogonalEdgeStyle;rounded=0;orthogonalLoop=1;jettySize=auto;html=1;" edge="1" parent="1" source="xFljtQe3LfoLFo4QXkJY-3" target="xFljtQe3LfoLFo4QXkJY-9">
          <mxGeometry relative="1" as="geometry" />
        </mxCell>
        <mxCell id="xFljtQe3LfoLFo4QXkJY-40" style="edgeStyle=orthogonalEdgeStyle;rounded=0;orthogonalLoop=1;jettySize=auto;html=1;entryX=0;entryY=0.5;entryDx=0;entryDy=0;" edge="1" parent="1" source="xFljtQe3LfoLFo4QXkJY-3" target="xFljtQe3LfoLFo4QXkJY-10">
          <mxGeometry relative="1" as="geometry" />
        </mxCell>
        <mxCell id="xFljtQe3LfoLFo4QXkJY-41" style="edgeStyle=orthogonalEdgeStyle;rounded=0;orthogonalLoop=1;jettySize=auto;html=1;entryX=0;entryY=0.5;entryDx=0;entryDy=0;" edge="1" parent="1" source="xFljtQe3LfoLFo4QXkJY-3" target="xFljtQe3LfoLFo4QXkJY-11">
          <mxGeometry relative="1" as="geometry" />
        </mxCell>
        <mxCell id="xFljtQe3LfoLFo4QXkJY-3" value="&lt;b&gt;CRM&lt;/b&gt;" style="image;aspect=fixed;html=1;points=[];align=center;fontSize=12;image=img/lib/azure2/general/Folder_Blank.svg;" vertex="1" parent="1">
          <mxGeometry x="85.36" y="240" width="49.29" height="40" as="geometry" />
        </mxCell>
        <mxCell id="xFljtQe3LfoLFo4QXkJY-44" style="edgeStyle=orthogonalEdgeStyle;rounded=0;orthogonalLoop=1;jettySize=auto;html=1;entryX=0;entryY=0.5;entryDx=0;entryDy=0;" edge="1" parent="1" source="xFljtQe3LfoLFo4QXkJY-4" target="xFljtQe3LfoLFo4QXkJY-14">
          <mxGeometry relative="1" as="geometry" />
        </mxCell>
        <mxCell id="xFljtQe3LfoLFo4QXkJY-45" style="edgeStyle=orthogonalEdgeStyle;rounded=0;orthogonalLoop=1;jettySize=auto;html=1;entryX=0;entryY=0.5;entryDx=0;entryDy=0;" edge="1" parent="1" source="xFljtQe3LfoLFo4QXkJY-4" target="xFljtQe3LfoLFo4QXkJY-13">
          <mxGeometry relative="1" as="geometry" />
        </mxCell>
        <mxCell id="xFljtQe3LfoLFo4QXkJY-46" style="edgeStyle=orthogonalEdgeStyle;rounded=0;orthogonalLoop=1;jettySize=auto;html=1;entryX=0;entryY=0.5;entryDx=0;entryDy=0;" edge="1" parent="1" source="xFljtQe3LfoLFo4QXkJY-4" target="xFljtQe3LfoLFo4QXkJY-12">
          <mxGeometry relative="1" as="geometry" />
        </mxCell>
        <mxCell id="xFljtQe3LfoLFo4QXkJY-4" value="&lt;b&gt;ERP&lt;/b&gt;" style="image;aspect=fixed;html=1;points=[];align=center;fontSize=12;image=img/lib/azure2/general/Folder_Blank.svg;" vertex="1" parent="1">
          <mxGeometry x="85.36" y="420" width="49.29" height="40" as="geometry" />
        </mxCell>
        <mxCell id="xFljtQe3LfoLFo4QXkJY-6" value="" style="rounded=1;whiteSpace=wrap;html=1;fillColor=none;strokeColor=#d79b00;" vertex="1" parent="1">
          <mxGeometry x="250" y="200" width="180" height="350" as="geometry" />
        </mxCell>
        <mxCell id="xFljtQe3LfoLFo4QXkJY-8" value="Bronze Layer" style="rounded=1;whiteSpace=wrap;html=1;fillColor=#ffe6cc;strokeColor=#d79b00;" vertex="1" parent="1">
          <mxGeometry x="250" y="160" width="180" height="30" as="geometry" />
        </mxCell>
        <mxCell id="xFljtQe3LfoLFo4QXkJY-47" style="edgeStyle=orthogonalEdgeStyle;rounded=0;orthogonalLoop=1;jettySize=auto;html=1;" edge="1" parent="1" source="xFljtQe3LfoLFo4QXkJY-9" target="xFljtQe3LfoLFo4QXkJY-17">
          <mxGeometry relative="1" as="geometry" />
        </mxCell>
        <mxCell id="xFljtQe3LfoLFo4QXkJY-9" value="crm_sales_details" style="rounded=1;whiteSpace=wrap;html=1;fillColor=#ffe6cc;strokeColor=#d79b00;" vertex="1" parent="1">
          <mxGeometry x="270" y="220" width="140" height="30" as="geometry" />
        </mxCell>
        <mxCell id="xFljtQe3LfoLFo4QXkJY-48" style="edgeStyle=orthogonalEdgeStyle;rounded=0;orthogonalLoop=1;jettySize=auto;html=1;" edge="1" parent="1" source="xFljtQe3LfoLFo4QXkJY-10" target="xFljtQe3LfoLFo4QXkJY-18">
          <mxGeometry relative="1" as="geometry" />
        </mxCell>
        <mxCell id="xFljtQe3LfoLFo4QXkJY-10" value="crm_cust_info" style="rounded=1;whiteSpace=wrap;html=1;fillColor=#ffe6cc;strokeColor=#d79b00;" vertex="1" parent="1">
          <mxGeometry x="270" y="270" width="140" height="30" as="geometry" />
        </mxCell>
        <mxCell id="xFljtQe3LfoLFo4QXkJY-49" style="edgeStyle=orthogonalEdgeStyle;rounded=0;orthogonalLoop=1;jettySize=auto;html=1;" edge="1" parent="1" source="xFljtQe3LfoLFo4QXkJY-11" target="xFljtQe3LfoLFo4QXkJY-19">
          <mxGeometry relative="1" as="geometry" />
        </mxCell>
        <mxCell id="xFljtQe3LfoLFo4QXkJY-11" value="crm_prd_info" style="rounded=1;whiteSpace=wrap;html=1;fillColor=#ffe6cc;strokeColor=#d79b00;" vertex="1" parent="1">
          <mxGeometry x="270" y="320" width="140" height="30" as="geometry" />
        </mxCell>
        <mxCell id="xFljtQe3LfoLFo4QXkJY-52" style="edgeStyle=orthogonalEdgeStyle;rounded=0;orthogonalLoop=1;jettySize=auto;html=1;entryX=0;entryY=0.5;entryDx=0;entryDy=0;" edge="1" parent="1" source="xFljtQe3LfoLFo4QXkJY-12" target="xFljtQe3LfoLFo4QXkJY-20">
          <mxGeometry relative="1" as="geometry" />
        </mxCell>
        <mxCell id="xFljtQe3LfoLFo4QXkJY-12" value="erp_px_cat_g1v2" style="rounded=1;whiteSpace=wrap;html=1;fillColor=#ffe6cc;strokeColor=#d79b00;" vertex="1" parent="1">
          <mxGeometry x="270" y="500" width="140" height="30" as="geometry" />
        </mxCell>
        <mxCell id="xFljtQe3LfoLFo4QXkJY-51" style="edgeStyle=orthogonalEdgeStyle;rounded=0;orthogonalLoop=1;jettySize=auto;html=1;entryX=0;entryY=0.5;entryDx=0;entryDy=0;" edge="1" parent="1" source="xFljtQe3LfoLFo4QXkJY-13" target="xFljtQe3LfoLFo4QXkJY-21">
          <mxGeometry relative="1" as="geometry" />
        </mxCell>
        <mxCell id="xFljtQe3LfoLFo4QXkJY-13" value="erp_loc_a101" style="rounded=1;whiteSpace=wrap;html=1;fillColor=#ffe6cc;strokeColor=#d79b00;" vertex="1" parent="1">
          <mxGeometry x="270" y="450" width="140" height="30" as="geometry" />
        </mxCell>
        <mxCell id="xFljtQe3LfoLFo4QXkJY-50" style="edgeStyle=orthogonalEdgeStyle;rounded=0;orthogonalLoop=1;jettySize=auto;html=1;" edge="1" parent="1" source="xFljtQe3LfoLFo4QXkJY-14" target="xFljtQe3LfoLFo4QXkJY-22">
          <mxGeometry relative="1" as="geometry" />
        </mxCell>
        <mxCell id="xFljtQe3LfoLFo4QXkJY-14" value="erp_cust_az12" style="rounded=1;whiteSpace=wrap;html=1;fillColor=#ffe6cc;strokeColor=#d79b00;" vertex="1" parent="1">
          <mxGeometry x="270" y="400" width="140" height="30" as="geometry" />
        </mxCell>
        <mxCell id="xFljtQe3LfoLFo4QXkJY-15" value="" style="rounded=1;whiteSpace=wrap;html=1;fillColor=none;strokeColor=#666666;gradientColor=none;" vertex="1" parent="1">
          <mxGeometry x="530" y="200" width="180" height="350" as="geometry" />
        </mxCell>
        <mxCell id="xFljtQe3LfoLFo4QXkJY-16" value="Silver Layer" style="rounded=1;whiteSpace=wrap;html=1;fillColor=#f5f5f5;strokeColor=#666666;gradientColor=none;" vertex="1" parent="1">
          <mxGeometry x="530" y="160" width="180" height="30" as="geometry" />
        </mxCell>
        <mxCell id="xFljtQe3LfoLFo4QXkJY-17" value="crm_sales_details" style="rounded=1;whiteSpace=wrap;html=1;fillColor=#f5f5f5;strokeColor=#666666;gradientColor=none;" vertex="1" parent="1">
          <mxGeometry x="550" y="220" width="140" height="30" as="geometry" />
        </mxCell>
        <mxCell id="xFljtQe3LfoLFo4QXkJY-18" value="crm_cust_info" style="rounded=1;whiteSpace=wrap;html=1;fillColor=#f5f5f5;strokeColor=#666666;gradientColor=none;" vertex="1" parent="1">
          <mxGeometry x="550" y="270" width="140" height="30" as="geometry" />
        </mxCell>
        <mxCell id="xFljtQe3LfoLFo4QXkJY-19" value="crm_prd_info" style="rounded=1;whiteSpace=wrap;html=1;fillColor=#f5f5f5;strokeColor=#666666;gradientColor=none;" vertex="1" parent="1">
          <mxGeometry x="550" y="320" width="140" height="30" as="geometry" />
        </mxCell>
        <mxCell id="xFljtQe3LfoLFo4QXkJY-61" style="rounded=0;orthogonalLoop=1;jettySize=auto;html=1;entryX=0;entryY=0.5;entryDx=0;entryDy=0;" edge="1" parent="1" source="xFljtQe3LfoLFo4QXkJY-20" target="xFljtQe3LfoLFo4QXkJY-35">
          <mxGeometry relative="1" as="geometry" />
        </mxCell>
        <mxCell id="xFljtQe3LfoLFo4QXkJY-20" value="erp_px_cat_g1v2" style="rounded=1;whiteSpace=wrap;html=1;fillColor=#f5f5f5;strokeColor=#666666;gradientColor=none;" vertex="1" parent="1">
          <mxGeometry x="550" y="500" width="140" height="30" as="geometry" />
        </mxCell>
        <mxCell id="xFljtQe3LfoLFo4QXkJY-60" style="rounded=0;orthogonalLoop=1;jettySize=auto;html=1;entryX=0;entryY=0.5;entryDx=0;entryDy=0;" edge="1" parent="1" source="xFljtQe3LfoLFo4QXkJY-21" target="xFljtQe3LfoLFo4QXkJY-34">
          <mxGeometry relative="1" as="geometry" />
        </mxCell>
        <mxCell id="xFljtQe3LfoLFo4QXkJY-21" value="erp_loc_a101" style="rounded=1;whiteSpace=wrap;html=1;fillColor=#f5f5f5;strokeColor=#666666;gradientColor=none;" vertex="1" parent="1">
          <mxGeometry x="550" y="450" width="140" height="30" as="geometry" />
        </mxCell>
        <mxCell id="xFljtQe3LfoLFo4QXkJY-59" style="rounded=0;orthogonalLoop=1;jettySize=auto;html=1;entryX=0;entryY=0.5;entryDx=0;entryDy=0;" edge="1" parent="1" source="xFljtQe3LfoLFo4QXkJY-22" target="xFljtQe3LfoLFo4QXkJY-34">
          <mxGeometry relative="1" as="geometry" />
        </mxCell>
        <mxCell id="xFljtQe3LfoLFo4QXkJY-22" value="erp_cust_az12" style="rounded=1;whiteSpace=wrap;html=1;fillColor=#f5f5f5;strokeColor=#666666;gradientColor=none;" vertex="1" parent="1">
          <mxGeometry x="550" y="400" width="140" height="30" as="geometry" />
        </mxCell>
        <mxCell id="xFljtQe3LfoLFo4QXkJY-31" value="" style="rounded=1;whiteSpace=wrap;html=1;fillColor=none;strokeColor=#d79b00;" vertex="1" parent="1">
          <mxGeometry x="810" y="200" width="180" height="350" as="geometry" />
        </mxCell>
        <mxCell id="xFljtQe3LfoLFo4QXkJY-32" value="Gold Layer" style="rounded=1;whiteSpace=wrap;html=1;fillColor=#ffe6cc;strokeColor=#d79b00;" vertex="1" parent="1">
          <mxGeometry x="810" y="160" width="180" height="30" as="geometry" />
        </mxCell>
        <mxCell id="xFljtQe3LfoLFo4QXkJY-33" value="fact_sales" style="rounded=1;whiteSpace=wrap;html=1;fillColor=#ffe6cc;strokeColor=#d79b00;" vertex="1" parent="1">
          <mxGeometry x="830" y="270" width="140" height="30" as="geometry" />
        </mxCell>
        <mxCell id="xFljtQe3LfoLFo4QXkJY-34" value="dim_customers" style="rounded=1;whiteSpace=wrap;html=1;fillColor=#ffe6cc;strokeColor=#d79b00;" vertex="1" parent="1">
          <mxGeometry x="830" y="360" width="140" height="30" as="geometry" />
        </mxCell>
        <mxCell id="xFljtQe3LfoLFo4QXkJY-35" value="dim_products" style="rounded=1;whiteSpace=wrap;html=1;fillColor=#ffe6cc;strokeColor=#d79b00;" vertex="1" parent="1">
          <mxGeometry x="830" y="450" width="140" height="30" as="geometry" />
        </mxCell>
        <mxCell id="xFljtQe3LfoLFo4QXkJY-56" value="" style="endArrow=classic;html=1;rounded=0;exitX=1;exitY=0.5;exitDx=0;exitDy=0;entryX=0;entryY=0.5;entryDx=0;entryDy=0;" edge="1" parent="1" source="xFljtQe3LfoLFo4QXkJY-17" target="xFljtQe3LfoLFo4QXkJY-33">
          <mxGeometry width="50" height="50" relative="1" as="geometry">
            <mxPoint x="760" y="410" as="sourcePoint" />
            <mxPoint x="810" y="360" as="targetPoint" />
          </mxGeometry>
        </mxCell>
        <mxCell id="xFljtQe3LfoLFo4QXkJY-57" value="" style="endArrow=classic;html=1;rounded=0;exitX=1;exitY=0.5;exitDx=0;exitDy=0;entryX=0;entryY=0.5;entryDx=0;entryDy=0;" edge="1" parent="1" source="xFljtQe3LfoLFo4QXkJY-18" target="xFljtQe3LfoLFo4QXkJY-34">
          <mxGeometry width="50" height="50" relative="1" as="geometry">
            <mxPoint x="690" y="280" as="sourcePoint" />
            <mxPoint x="830" y="340" as="targetPoint" />
          </mxGeometry>
        </mxCell>
        <mxCell id="xFljtQe3LfoLFo4QXkJY-58" value="" style="endArrow=classic;html=1;rounded=0;exitX=1;exitY=0.5;exitDx=0;exitDy=0;entryX=0;entryY=0.5;entryDx=0;entryDy=0;" edge="1" parent="1" source="xFljtQe3LfoLFo4QXkJY-19" target="xFljtQe3LfoLFo4QXkJY-35">
          <mxGeometry width="50" height="50" relative="1" as="geometry">
            <mxPoint x="720" y="440" as="sourcePoint" />
            <mxPoint x="770" y="390" as="targetPoint" />
          </mxGeometry>
        </mxCell>
        <mxCell id="xFljtQe3LfoLFo4QXkJY-62" value="&lt;b&gt;&lt;font style=&quot;font-size: 24px;&quot;&gt;Data Flow Diagram&lt;/font&gt;&lt;/b&gt;" style="text;html=1;align=center;verticalAlign=middle;resizable=0;points=[];autosize=1;strokeColor=none;fillColor=none;" vertex="1" parent="1">
          <mxGeometry x="40" y="90" width="240" height="40" as="geometry" />
        </mxCell>
      </root>
    </mxGraphModel>
  </diagram>
</mxfile>
